<?xml version="1.0" encoding="UTF-8"?>
<svg id="Capa_1" data-name="Capa 1" xmlns="http://www.w3.org/2000/svg" viewBox="0 0 621.41 184.41">
  <defs>
    <style>
      .cls-1 {
        fill: #606060;
      }
    </style>
  </defs>
  <g>
    <path class="cls-1" d="M81.26,179.94c.18,0,.35.07.49.21l1.33,1.44c-.74.91-1.64,1.61-2.71,2.09-1.07.48-2.36.73-3.87.73-1.34,0-2.55-.23-3.63-.69-1.07-.46-1.99-1.1-2.75-1.92-.76-.82-1.34-1.8-1.75-2.93-.41-1.14-.61-2.38-.61-3.72s.22-2.61.65-3.74c.43-1.13,1.05-2.11,1.84-2.93.79-.82,1.73-1.46,2.83-1.91,1.09-.46,2.31-.68,3.63-.68s2.49.22,3.52.65c1.02.43,1.89,1,2.61,1.7l-1.13,1.57c-.07.1-.15.19-.26.26s-.25.11-.43.11c-.12,0-.25-.04-.39-.11-.13-.07-.28-.16-.44-.26-.16-.1-.34-.22-.55-.34-.21-.13-.45-.24-.73-.34s-.6-.19-.96-.26c-.36-.07-.78-.11-1.26-.11-.81,0-1.55.14-2.22.43-.67.29-1.25.71-1.74,1.25s-.86,1.22-1.13,2-.4,1.69-.4,2.7.14,1.93.43,2.72c.29.79.68,1.46,1.17,2.01.49.54,1.07.96,1.74,1.25.67.29,1.39.43,2.16.43.46,0,.88-.03,1.25-.08.37-.05.71-.13,1.03-.24.31-.11.61-.25.89-.42.28-.17.56-.38.83-.63.08-.08.17-.14.26-.18.09-.05.19-.07.29-.07Z"/>
    <path class="cls-1" d="M150.8,166.09v18.12h-3.38v-7.92h-8.51v7.92h-3.38v-18.12h3.38v7.8h8.51v-7.8h3.38Z"/>
    <path class="cls-1" d="M222.25,175.15c0,1.33-.22,2.56-.66,3.69s-1.06,2.11-1.86,2.94-1.77,1.47-2.89,1.94-2.38.7-3.76.7-2.62-.23-3.75-.7-2.09-1.11-2.9-1.94c-.81-.83-1.43-1.81-1.87-2.94-.44-1.13-.66-2.36-.66-3.69s.22-2.56.66-3.69c.44-1.13,1.07-2.11,1.87-2.94.81-.83,1.77-1.47,2.9-1.94,1.13-.46,2.38-.7,3.75-.7.92,0,1.78.11,2.59.32.81.21,1.55.51,2.23.9.68.39,1.29.86,1.82,1.42s1,1.18,1.37,1.86.66,1.43.86,2.23.29,1.65.29,2.53ZM218.81,175.15c0-.99-.13-1.89-.4-2.68-.27-.79-.65-1.46-1.14-2.01-.49-.55-1.09-.97-1.8-1.27s-1.5-.44-2.39-.44-1.68.15-2.39.44-1.31.71-1.8,1.27c-.5.55-.88,1.22-1.15,2.01s-.4,1.68-.4,2.68.13,1.89.4,2.68.65,1.46,1.15,2c.5.55,1.1.97,1.8,1.26s1.5.44,2.39.44,1.68-.15,2.39-.44,1.31-.71,1.8-1.26c.49-.55.87-1.22,1.14-2,.27-.79.4-1.68.4-2.68Z"/>
    <path class="cls-1" d="M287.8,179.94c.18,0,.35.07.49.21l1.33,1.44c-.74.91-1.64,1.61-2.71,2.09-1.07.48-2.36.73-3.87.73-1.34,0-2.55-.23-3.63-.69-1.07-.46-1.99-1.1-2.75-1.92-.76-.82-1.34-1.8-1.75-2.93-.41-1.14-.61-2.38-.61-3.72s.22-2.61.65-3.74c.43-1.13,1.05-2.11,1.84-2.93.79-.82,1.73-1.46,2.83-1.91,1.09-.46,2.31-.68,3.63-.68s2.49.22,3.52.65c1.02.43,1.89,1,2.61,1.7l-1.13,1.57c-.07.1-.15.19-.26.26s-.25.11-.43.11c-.12,0-.25-.04-.39-.11-.13-.07-.28-.16-.44-.26-.16-.1-.34-.22-.55-.34-.21-.13-.45-.24-.73-.34s-.6-.19-.96-.26c-.36-.07-.78-.11-1.26-.11-.81,0-1.55.14-2.22.43-.67.29-1.25.71-1.74,1.25s-.86,1.22-1.13,2-.4,1.69-.4,2.7.14,1.93.43,2.72c.29.79.68,1.46,1.17,2.01.49.54,1.07.96,1.74,1.25.67.29,1.39.43,2.16.43.46,0,.88-.03,1.25-.08.37-.05.71-.13,1.03-.24.31-.11.61-.25.89-.42.28-.17.56-.38.83-.63.08-.08.17-.14.26-.18.09-.05.19-.07.29-.07Z"/>
    <path class="cls-1" d="M358.96,175.15c0,1.33-.22,2.56-.66,3.69s-1.06,2.11-1.86,2.94-1.77,1.47-2.89,1.94-2.38.7-3.76.7-2.62-.23-3.75-.7-2.09-1.11-2.9-1.94c-.81-.83-1.43-1.81-1.87-2.94-.44-1.13-.66-2.36-.66-3.69s.22-2.56.66-3.69c.44-1.13,1.07-2.11,1.87-2.94.81-.83,1.77-1.47,2.9-1.94,1.13-.46,2.38-.7,3.75-.7.92,0,1.78.11,2.59.32.81.21,1.55.51,2.23.9.68.39,1.29.86,1.82,1.42s1,1.18,1.37,1.86.66,1.43.86,2.23.29,1.65.29,2.53ZM355.51,175.15c0-.99-.13-1.89-.4-2.68-.27-.79-.65-1.46-1.14-2.01-.49-.55-1.09-.97-1.8-1.27s-1.5-.44-2.39-.44-1.68.15-2.39.44-1.31.71-1.8,1.27c-.5.55-.88,1.22-1.15,2.01s-.4,1.68-.4,2.68.13,1.89.4,2.68.65,1.46,1.15,2c.5.55,1.1.97,1.8,1.26s1.5.44,2.39.44,1.68-.15,2.39-.44,1.31-.71,1.8-1.26c.49-.55.87-1.22,1.14-2,.27-.79.4-1.68.4-2.68Z"/>
    <path class="cls-1" d="M422.68,181.43v2.78h-10.62v-18.12h3.37v15.34h7.24Z"/>
    <path class="cls-1" d="M490.74,184.21h-2.61c-.29,0-.53-.07-.71-.22s-.32-.33-.41-.55l-1.35-3.7h-7.51l-1.35,3.7c-.07.19-.2.37-.39.53-.19.16-.43.24-.71.24h-2.63l7.13-18.12h3.43l7.12,18.12ZM484.79,177.37l-2.21-6.03c-.11-.27-.22-.58-.34-.95s-.23-.76-.35-1.19c-.11.43-.22.83-.34,1.2-.12.37-.23.7-.34.97l-2.19,6h5.76Z"/>
    <path class="cls-1" d="M553.64,168.86h-5.46v15.35h-3.37v-15.35h-5.46v-2.77h14.3v2.77Z"/>
  </g>
  <g>
    <path class="cls-1" d="M47.56,85.69v13.48c0,16.24-8.12,25.52-23.78,25.52S0,115.41,0,99.17v-52.78c0-16.24,8.12-25.52,23.78-25.52s23.78,9.28,23.78,25.52v9.86h-4.2c-6.01,0-10.87-4.87-10.87-10.87h0c0-7.25-3.19-10-8.26-10s-8.26,2.75-8.26,10v54.81c0,7.25,3.19,9.86,8.26,9.86s8.26-2.61,8.26-9.86h0c0-8.01,6.49-14.5,14.5-14.5h.58Z"/>
    <path class="cls-1" d="M137.88,123.53h-8.32c-4.47,0-8.26-3.27-8.92-7.69l-1.6-10.73h-19.57s-1.6,10.72-1.6,10.72c-.66,4.42-4.46,7.7-8.93,7.7h-6.86l16.24-101.49h23.34l16.24,101.49ZM101.49,91.34h15.37l-7.68-51.33-7.68,51.33Z"/>
    <path class="cls-1" d="M313.17,123.53h-8.32c-4.47,0-8.26-3.27-8.92-7.69l-1.6-10.73h-19.57s-1.6,10.72-1.6,10.72c-.66,4.42-4.46,7.7-8.93,7.7h-6.86l16.24-101.49h23.34l16.24,101.49ZM276.78,91.34h15.37l-7.68-51.33-7.68,51.33Z"/>
    <path class="cls-1" d="M207.62,123.53c-.87-2.61-1.45-4.2-1.45-12.47v-15.95c0-9.42-3.19-12.9-10.44-12.9h-5.51v41.32h-6.93c-4.98,0-9.02-4.04-9.02-9.02V22.04h24.07c16.53,0,23.63,7.68,23.63,23.34v7.97c0,10.44-3.33,17.25-10.44,20.59,7.97,3.33,10.58,11.02,10.58,21.6v15.66c0,4.93.15,8.55,1.74,12.32h-16.24ZM190.22,44.22v23.49h6.23c5.94,0,9.57-2.61,9.57-10.73v-10c0-7.25-2.47-10.44-8.12-10.44h0c-4.24,0-7.68,3.44-7.68,7.68Z"/>
    <path class="cls-1" d="M353.48,9.03v4.89h-13.92V0h4.89c4.99,0,9.03,4.04,9.03,9.03ZM349.56,22.04h15.95v101.49h-15.95V22.04ZM375.51,0v13.92h-13.92v-4.89c0-4.99,4.04-9.03,9.03-9.03h4.89Z"/>
    <path class="cls-1" d="M453.8,45.38v3.62c0,10.44-3.19,17.11-10.29,20.44,8.55,3.33,11.89,11.02,11.89,21.75v8.26c0,15.66-8.26,24.07-24.21,24.07h-20.2c-2.7,0-4.88-2.19-4.88-4.88V26.91c0-2.69,2.18-4.88,4.88-4.88h19.19c16.53,0,23.63,7.68,23.63,23.34ZM422.05,36.54v20.59c0,3.44,2.79,6.23,6.23,6.23h0c5.94,0,9.57-2.61,9.57-10.73v-5.65c0-7.25-2.47-10.44-8.12-10.44h-7.68ZM422.05,84.96v24.07h9.13c5.36,0,8.26-2.46,8.26-10v-8.84c0-9.42-3.04-12.32-10.29-12.32h0c-3.92,0-7.1,3.18-7.1,7.1Z"/>
    <path class="cls-1" d="M537.46,22.04h0s-13.3,0-13.3,0c-16.68,0-30.2,13.52-30.2,30.2v41.09c0,16.68,13.52,30.2,30.2,30.2h13.3c0-8.01-6.49-14.5-14.5-14.5h-8.17c-2.69,0-4.87-2.18-4.87-4.87v-24.85h21.89v-14.5h-21.89v-23.39c0-2.7,2.19-4.88,4.88-4.88h8.17c8.01,0,14.5-6.49,14.5-14.5Z"/>
    <path class="cls-1" d="M597.77,20.88c15.51,0,23.49,9.28,23.49,25.52v3.19h-10.87c-2.32,0-4.2-1.88-4.2-4.2h0c0-7.25-2.9-10-7.97-10s-7.97,2.75-7.97,10c0,20.88,31.17,24.79,31.17,53.79,0,16.24-8.12,25.52-23.78,25.52s-23.78-9.28-23.78-25.52v-6.23h7.83c4,0,7.25,3.25,7.25,7.25h0c0,7.25,3.19,9.86,8.26,9.86s8.26-2.61,8.26-9.86c0-20.88-31.17-24.79-31.17-53.79,0-16.24,7.97-25.52,23.49-25.52Z"/>
  </g>
</svg>